<?xml version="1.0" encoding="utf-8"?>
<!-- Generator: $$$/GeneralStr/196=Adobe Illustrator 27.6.0, SVG Export Plug-In . SVG Version: 6.00 Build 0)  -->
<svg version="1.1" id="Ebene_1" xmlns="http://www.w3.org/2000/svg" xmlns:xlink="http://www.w3.org/1999/xlink" x="0px" y="0px"
	 viewBox="0 0 1133.9 249.9" style="enable-background:new 0 0 1133.9 249.9;" xml:space="preserve">
<style type="text/css">
	.st0{fill:none;stroke:#fff;stroke-width:21;}
	.st1{fill:#fff;}
</style>
<g>
	<circle class="st0" cx="127.6" cy="124.9" r="106"/>
	<path class="st0" d="M127.6,18.9v212 M127.6,124.9l-75,75 M127.6,124.9l75,75"/>
</g>
<g>
	<path class="st1" d="M280.2,120.2c0-25,14.7-42.8,39.5-42.8c22.3,0,35.8,14.4,36.5,30.4H338c-1.6-7.7-8.1-14.5-17.2-14.5
		c-13.3,0-21.2,10.4-21.2,27.3v7.8c0,17,8.2,27.7,21.3,27.7c10.7,0,16.4-6.2,17.7-13.3h18.2c-2.4,18.3-15.7,29.2-37,29.2
		c-24.9,0-39.5-18-39.5-43.7V120.2z"/>
	<path class="st1" d="M375.7,79h19.2v12h0.7c2.3-5.7,9.2-13.3,21.9-13.3c2.5,0,4.7,0.2,6.5,0.5v17c-1.6-0.4-5-0.7-8.2-0.7
		c-15.4,0-20.6,9.5-20.6,21.8v54.2h-19.5V79z"/>
	<path class="st1" d="M434.1,144.2c0-16.3,11.3-26.6,32.3-26.6h23.2v-8.8c0-10.5-6.2-16.3-17-16.3c-10.5,0-16.5,5.5-17.2,13.6h-18
		c0.8-15.6,11.2-28.6,35.6-28.6c20.4,0,35.5,10.1,35.5,30.6v62.4h-18.3v-11.3h-0.7c-4,7-12,12.7-25.6,12.7
		C446.3,171.9,434.1,161.3,434.1,144.2z M489.6,140.4v-10.1h-19.9c-11.2,0-16.3,5.3-16.3,12.9c0,9.5,8,14.1,16.5,14.1
		C481.1,157.3,489.6,150.4,489.6,140.4z"/>
	<path class="st1" d="M542.8,45.7c6.2,0,11.4,4.6,11.4,10.9c0,6.3-5.1,10.8-11.4,10.8s-11.4-4.5-11.4-10.8C531.3,50.3,536.5,45.7,542.8,45.7z
		 M533.1,79h19.2v91.6h-19.2V79z"/>
	<path class="st1" d="M636.5,168.3V155h-0.7c-3.6,8-13.3,14.5-26,14.5c-21.1,0-35.7-15-35.7-42.7v-6.6c0-27.4,14.6-42.5,35.7-42.5
		c12.6,0,22.4,6.4,26.3,14.5h0.7V79h18.8v90.2c0,24.4-20.1,34.9-40.8,34.9c-25,0-37-12-38.7-27.3h19.1c1.6,6.8,8.8,12.5,19.8,12.5
		C628.3,189.3,636.5,181.6,636.5,168.3z M593.7,121.2v5.5c0,17.5,8.1,27.7,21.8,27.7c13.2,0,21.1-10.2,21.1-27.7v-5.5
		c0-17.2-8.3-27.7-21.1-27.7C601.8,93.4,593.7,103.3,593.7,121.2z"/>
	<path class="st1" d="M712.3,77.4c21.7,0,33.9,11.6,33.9,27.8h-17.3c-0.6-6.4-4.6-13.5-17.1-13.5c-9.8,0-16.5,4.4-16.5,12.1
		c0,9.6,12.7,11.4,23.1,13.3c17,3,30.3,8.3,30.3,25.6c0,18.5-14.7,29.3-37.8,29.3c-22,0-35.9-10.4-35.9-26.8h18.7
		c1,7.5,7.5,12.5,18.4,12.5c12.2,0,17.9-5.8,17.9-12.6c0-9.5-10.7-11.1-22.9-13.5c-16.7-3.6-30.3-9.3-30.3-26
		C676.9,85.9,693.8,77.4,712.3,77.4z"/>
	<path class="st1" d="M768.7,46H788v124.5h-19.2V46z"/>
	<path class="st1" d="M823.5,45.7c6.2,0,11.4,4.6,11.4,10.9c0,6.3-5.1,10.8-11.4,10.8c-6.2,0-11.4-4.5-11.4-10.8
		C812.1,50.3,817.3,45.7,823.5,45.7z M813.9,79h19.2v91.6h-19.2V79z"/>
	<path class="st1" d="M890.5,77.4c21.7,0,33.9,11.6,33.9,27.8H907c-0.6-6.4-4.6-13.5-17.1-13.5c-9.8,0-16.5,4.4-16.5,12.1
		c0,9.6,12.7,11.4,23.1,13.3c17,3,30.3,8.3,30.3,25.6c0,18.5-14.7,29.3-37.8,29.3c-22,0-35.9-10.4-35.9-26.8H872
		c1,7.5,7.5,12.5,18.4,12.5c12.2,0,17.9-5.8,17.9-12.6c0-9.5-10.7-11.1-22.9-13.5c-16.7-3.6-30.3-9.3-30.3-26
		C855,85.9,871.9,77.4,890.5,77.4z"/>
	<path class="st1" d="M952.4,56.7h18.9V79h17.9v15.4h-17.9v48.9c0,10,3.7,12.7,14,12.7c1.6,0,3.2,0,4.3-0.2v14.7c-1.6,0.3-5.2,0.6-9.1,0.6
		c-22.3,0-28.4-8-28.4-26.3V94.4h-12.7V79h12.9V56.7z"/>
</g>
</svg>
